HIERARCHY
ROOT Hips
{
	OFFSET 0.0000 0.0000 0.0000
	CHANNELS 6 Xposition Yposition Zposition Zrotation Xrotation Yrotation
	JOINT Ab
	{
		OFFSET -0.0000 8.1305 -0.0000
		CHANNELS 3 Zrotation Xrotation Yrotation
		JOINT Chest
		{
			OFFSET -0.0000 26.2902 -0.0000
			CHANNELS 3 Zrotation Xrotation Yrotation
			JOINT Neck
			{
				OFFSET -0.0000 26.2902 0.0000
				CHANNELS 3 Zrotation Xrotation Yrotation
				JOINT Head
				{
					OFFSET -0.0000 10.8167 0.0000
					CHANNELS 3 Zrotation Xrotation Yrotation
					End Site
					{
						OFFSET -0.0000 16.7167 0.0000
					}
				}
			}
			JOINT LeftCollar
			{
				OFFSET -0.0000 26.2902 0.0000
				CHANNELS 3 Zrotation Xrotation Yrotation
				JOINT LeftShoulder
				{
					OFFSET 19.6667 -0.0000 0.0000
					CHANNELS 3 Zrotation Xrotation Yrotation
					JOINT LeftElbow
					{
						OFFSET 27.2190 0.0000 0.0000
						CHANNELS 3 Zrotation Xrotation Yrotation
						JOINT LeftWrist
						{
							OFFSET 30.7431 0.0000 0.0000
							CHANNELS 3 Zrotation Xrotation Yrotation
							End Site
							{
								OFFSET 0.0000 -14.7500 0.0000
							}
						}
					}
				}
			}
			JOINT RightCollar
			{
				OFFSET -0.0000 26.2902 0.0000
				CHANNELS 3 Zrotation Xrotation Yrotation
				JOINT RightShoulder
				{
					OFFSET -19.6667 0.0000 0.0000
					CHANNELS 3 Zrotation Xrotation Yrotation
					JOINT RightElbow
					{
						OFFSET -27.2190 0.0000 0.0000
						CHANNELS 3 Zrotation Xrotation Yrotation
						JOINT RightWrist
						{
							OFFSET -30.7431 0.0000 0.0000
							CHANNELS 3 Zrotation Xrotation Yrotation
							End Site
							{
								OFFSET -0.0000 -14.7500 0.0000
							}
						}
					}
				}
			}
		}
	}
	JOINT LeftHip
	{
		OFFSET 11.8000 0.0000 0.0000
		CHANNELS 3 Zrotation Xrotation Yrotation
		JOINT LeftKnee
		{
			OFFSET -0.0000 -39.7832 0.0000
			CHANNELS 3 Zrotation Xrotation Yrotation
			JOINT LeftAnkle
			{
				OFFSET -0.0000 -41.7317 0.0000
				CHANNELS 3 Zrotation Xrotation Yrotation
				End Site
				{
					OFFSET -0.0000 -4.9167 16.7167
				}
			}
		}
	}
	JOINT RightHip
	{
		OFFSET -11.8000 0.0000 0.0000
		CHANNELS 3 Zrotation Xrotation Yrotation
		JOINT RightKnee
		{
			OFFSET -0.0000 -39.7832 0.0000
			CHANNELS 3 Zrotation Xrotation Yrotation
			JOINT RightAnkle
			{
				OFFSET -0.0000 -41.7317 0.0000
				CHANNELS 3 Zrotation Xrotation Yrotation
				End Site
				{
					OFFSET -0.0000 -4.9167 16.7167
				}
			}
		}
	}
}
MOTION
Frames: 15
Frame Time: 0.010000
-11.6401 92.4708 112.2585 356.8728 346.6342 191.7299 358.2702 350.8127 1.3785 0.9735 12.2315 1.4130 342.9993 344.9714 348.7479 11.5903 13.4989 349.6227 339.1982 357.1822 15.3564 327.5010 53.9147 339.3317 11.5023 352.1300 292.2770 97.8686 350.3620 346.6184 26.0324 355.6133 341.1369 29.5540 50.6302 21.2387 321.2225 329.8055 74.9730 254.0729 348.5819 338.4814 351.3611 337.6158 359.5236 357.8241 19.0393 359.4978 348.2676 345.5337 12.5861 353.3721 353.4735 11.1019 10.6441 17.1466 11.5704 347.1686 338.3872 310.2573 
-11.6006 92.2030 111.2004 357.1403 347.0351 191.8662 358.2979 350.7388 1.2957 0.9700 12.1949 1.3258 343.4146 345.3224 348.8429 11.4783 13.7216 349.6035 339.2492 357.1604 15.4541 327.6973 54.1528 339.0307 11.7260 351.9552 292.1074 98.6024 350.6359 347.4792 26.1624 355.5952 341.1382 30.2929 50.3793 20.0692 321.5523 330.2354 74.8703 253.9342 348.6511 338.4562 351.6109 338.2101 358.9858 357.9858 18.4545 0.0607 348.2721 345.9130 12.5529 353.7839 354.0723 10.7444 10.8051 18.0987 11.8450 347.2355 337.5702 310.2338 
-11.5231 91.8988 110.1436 357.4887 347.3233 191.8868 358.3066 350.5406 1.2455 1.0386 12.0704 1.2658 343.7887 345.8193 349.0365 11.4753 13.8905 349.6757 339.3110 357.1303 15.6157 327.6782 54.3613 338.9633 11.9862 351.7327 291.8624 98.6628 350.8011 348.1798 26.3443 355.5813 341.2547 30.8100 50.2424 18.9650 321.9705 330.7078 74.6360 253.8072 348.9427 338.5090 351.9908 338.6636 358.7133 358.2408 18.5268 0.4709 348.6440 347.0276 12.9107 354.2406 354.2574 10.1534 11.0374 19.5728 12.2188 347.3398 336.5241 310.2945 
-11.4909 91.5846 109.0031 357.7230 347.8344 191.7966 358.3336 350.4614 1.1991 0.9538 12.0327 1.2278 344.3968 346.3242 349.2915 11.3276 14.1209 349.7784 339.3561 357.1060 15.8154 327.8280 54.4198 338.8593 12.1262 351.6263 291.4132 98.8858 351.2749 349.0617 26.5439 355.5548 341.2822 31.2681 50.2242 18.0393 322.3071 331.2038 74.1504 253.7474 348.8855 338.8124 352.1822 339.2595 358.9649 358.6692 19.8339 0.8726 351.0948 347.8687 12.9627 354.5101 354.5418 9.2667 11.3344 21.4673 12.9533 347.3715 335.4303 310.4013 
-11.4942 91.2877 107.9669 357.8362 348.1856 191.6233 358.3203 350.3303 1.0998 0.7000 11.8517 1.1773 344.8674 347.1784 349.5771 11.6463 14.0148 349.8737 339.4709 357.1077 16.0168 327.8278 54.4901 338.9357 12.3824 351.3520 291.1073 98.9330 351.1776 349.9126 26.8036 355.4995 341.3213 31.5523 50.1706 17.3299 322.7076 331.7656 73.7465 253.4304 348.9104 338.9589 352.6210 339.3897 358.6252 358.0645 21.4554 0.7204 351.8962 347.0685 13.5733 354.5749 354.3736 8.2207 11.8044 23.7601 13.4046 347.7341 334.2141 310.7878 
-11.5296 91.0125 106.9006 357.6949 348.6288 191.3848 358.1710 350.3653 0.9706 0.2968 11.5803 1.1177 345.4869 347.9867 349.9089 11.6338 13.9913 350.0376 339.5198 357.0679 16.3493 327.9367 54.5108 338.9518 12.5301 351.2380 290.7143 99.8333 351.4084 350.5459 27.1841 355.4318 341.4643 31.9761 50.1230 16.3682 323.1197 332.3299 73.2793 253.5028 348.5579 339.4424 352.7919 339.9106 358.4612 357.7282 22.4425 0.0824 353.5205 347.3647 14.9611 354.4100 354.0385 6.3577 11.8899 26.8690 15.0783 348.2594 333.0633 311.1312 
-11.5659 90.7637 105.8360 357.4109 349.1245 191.1519 357.7198 350.3755 0.9310 0.1446 11.5521 1.0956 346.0611 348.6701 350.1889 11.6183 13.9200 350.1781 339.4055 356.9790 16.7062 328.4808 54.5568 338.5570 12.7131 351.0161 290.2313 100.0351 351.5806 351.5052 27.5135 355.4065 341.6468 32.5003 49.7042 15.3734 323.7132 333.0325 72.9941 253.1896 348.4340 339.9443 352.8637 340.7623 358.0871 357.3541 22.9956 359.8170 352.8562 346.6032 15.5840 354.0654 353.7061 5.2157 12.4237 29.9456 15.7429 348.9063 332.1439 311.5279 
-11.6128 90.5557 104.8924 356.9512 349.2974 190.7432 357.1884 350.2979 0.8098 359.8424 11.4407 1.0759 346.4741 349.0146 350.4278 11.7557 14.0753 350.3015 339.3150 356.8845 17.2197 329.2306 54.5716 337.7378 12.9020 350.8216 289.7771 100.0994 351.6844 352.2398 27.9298 355.3603 341.7767 32.9197 49.1479 14.5747 324.4447 333.8095 72.7435 253.0855 348.2403 340.8204 352.6515 341.2582 357.7546 357.0509 23.5667 0.2090 353.4793 346.1424 15.9205 353.3283 352.7426 4.5061 13.4214 33.3179 15.9067 349.7689 331.5198 312.0788 
-11.6679 90.3654 103.9263 356.5047 349.5443 190.3870 356.6858 350.2122 0.6768 359.6077 11.4907 1.0386 346.7261 349.2171 350.6558 11.8756 14.2828 350.4456 339.1874 356.7653 17.7590 329.7457 54.3068 337.0633 12.8888 350.8534 289.1142 100.4957 351.9059 352.8240 28.2236 355.3617 341.9789 33.6259 48.5240 13.6193 325.1431 334.4911 72.4524 253.1828 347.9908 341.5711 352.3581 342.0114 357.2868 356.7928 23.8803 0.9239 353.9272 345.7563 15.9323 352.6549 351.7992 3.8934 14.6223 36.7188 15.6526 350.6062 331.4951 312.7340 
-11.7225 90.2047 102.9839 356.1422 349.7305 190.0437 356.2847 350.0351 0.6404 359.4380 11.6476 0.9863 346.7174 349.3618 350.8733 12.1609 14.4835 350.5926 338.8914 356.6167 18.2258 330.6552 54.0743 336.1333 12.8005 350.8666 288.5060 99.9241 351.7996 352.0864 28.4789 355.3806 342.3015 34.3933 47.7962 12.4729 325.7796 335.0616 72.2033 253.5279 347.6363 342.1813 352.1080 342.8643 357.0167 356.6007 23.9628 1.3617 354.4741 345.5134 16.3202 351.9475 350.6987 2.8310 15.6320 40.1912 15.6565 351.1685 332.0726 313.3768 
-11.7557 90.0679 102.0284 355.8665 350.0683 189.6401 356.0751 349.9460 0.5980 359.1848 11.9287 1.0221 346.7260 349.4587 351.0442 12.3322 14.7179 350.6996 338.7376 356.5098 18.5186 331.1787 53.7960 335.3995 12.7285 350.8471 287.8836 99.4626 351.5393 351.5715 28.6948 355.4271 342.6477 35.3636 47.0596 11.1494 326.3436 335.5478 71.9546 253.7784 347.4598 342.9044 351.9855 343.9373 357.4318 356.7237 23.9412 1.0494 355.0153 345.1857 16.4218 351.3715 349.6311 2.0869 16.7719 43.6159 15.2183 351.8687 332.7142 314.0149 
-11.8077 89.9595 101.0645 355.7114 350.4215 189.2828 355.9998 349.9193 0.6324 358.9841 12.0676 1.0995 346.5925 349.7510 351.1903 12.5853 14.7789 350.7828 338.3433 356.4150 18.5002 331.4735 53.1554 335.5427 12.3221 351.1624 286.6677 99.9716 351.5522 351.7482 28.8038 355.4874 342.8363 36.1907 46.6683 9.9525 326.6474 335.8470 71.4790 254.0370 347.3409 343.1386 351.9086 345.1244 357.8419 357.0015 23.7356 0.8632 354.5124 344.4273 16.4366 350.8401 348.6190 1.5003 18.2162 46.6714 14.3646 352.0301 333.0782 314.3075 
-11.8410 89.8876 100.0650 355.6287 350.8709 188.9357 356.0102 349.9266 0.6904 358.8156 12.2879 1.1708 346.6035 349.9738 351.3647 12.5967 14.9249 350.9117 338.2643 356.4013 18.5848 331.6076 52.9204 335.0613 12.1918 351.0211 286.0238 100.3135 351.5577 351.8861 28.8091 355.5213 342.9507 37.0471 46.4872 8.7441 326.7790 336.0244 70.9970 254.3160 347.2066 343.3735 351.9837 346.4597 358.2511 357.1654 23.4198 0.8675 354.8016 344.1940 16.5340 350.4619 347.7819 1.2837 19.9320 49.3768 13.7618 351.0145 333.6227 313.3144 
-11.8782 89.8609 99.0675 355.6009 351.3710 188.6929 356.0595 350.0787 0.7304 358.6967 12.3771 1.2116 346.7750 350.1996 351.5274 12.3325 15.1066 351.0434 338.1627 356.3870 18.5064 331.5416 52.6621 334.9799 12.1536 350.8145 285.2195 100.2511 351.6978 352.1556 28.7031 355.5719 342.9505 38.0180 46.2484 7.4750 326.8808 336.2380 70.5741 254.5474 346.8607 343.1831 352.1426 347.8722 358.4944 357.1920 23.0584 0.8016 354.6047 343.7700 16.3821 350.0918 347.0847 1.0975 21.6107 51.5497 12.4517 349.8607 334.3017 312.8835 
-11.9217 89.8833 98.0910 355.5772 351.6631 188.4136 356.2111 350.0104 0.7228 358.4278 12.5200 1.2218 346.9028 350.4298 351.7120 12.2135 15.2271 351.1956 338.3790 356.4646 18.5945 331.3470 52.9186 334.4334 12.6841 350.0293 284.9240 99.9537 351.6436 352.9003 28.6988 355.5856 343.0326 38.7698 45.8734 6.1647 327.1347 336.5160 70.4734 254.8024 346.5467 343.4830 352.3544 349.0957 358.7197 357.0345 22.5364 1.3871 354.3602 343.5374 15.8075 349.6547 346.0975 0.7209 23.1014 53.5572 11.3459 349.7136 334.0939 312.8329 
